<?xml version="1.0" standalone="no"?>
<!DOCTYPE svg PUBLIC "-//W3C//DTD SVG 20010904//EN"
 "http://www.w3.org/TR/2001/REC-SVG-20010904/DTD/svg10.dtd">
<svg version="1.0" xmlns="http://www.w3.org/2000/svg"
 width="1280.000000pt" height="1280.000000pt" viewBox="0 0 1280.000000 1280.000000"
 preserveAspectRatio="xMidYMid meet">

<g transform="translate(0.000000,1280.000000) scale(0.100000,-0.100000)"
fill="#000000" stroke="none">
<path d="M5680 9633 c-14 -2 -92 -19 -175 -38 -82 -18 -181 -36 -220 -40 -395
-38 -842 -141 -1195 -276 -731 -279 -1196 -683 -1367 -1189 -80 -235 -70 -470
56 -1355 l38 -270 -47 -75 c-61 -99 -181 -371 -215 -489 -105 -364 -58 -766
133 -1131 194 -371 440 -659 777 -910 1329 -986 3588 -1039 4857 -112 304 221
608 583 744 883 165 366 177 761 37 1145 -2 5 31 25 74 44 421 185 718 485
938 945 80 167 128 321 160 518 21 130 25 175 19 255 -9 138 -61 314 -122 416
-60 99 -206 240 -307 295 -149 81 -372 131 -585 131 -214 0 -265 22 -489 209
-546 457 -999 690 -1649 850 -159 40 -454 93 -582 106 -36 4 -99 15 -140 25
-214 53 -347 70 -534 69 -100 -1 -192 -4 -206 -6z m632 -188 c134 -17 206 -36
371 -95 286 -105 718 -456 1066 -868 125 -148 231 -248 327 -308 78 -48 107
-91 154 -222 21 -56 22 -75 17 -180 -3 -64 -13 -142 -22 -172 -66 -215 -263
-444 -528 -614 -327 -210 -740 -345 -1272 -418 -137 -18 -209 -22 -501 -22
l-340 -1 -41 27 c-32 21 -43 36 -52 73 -10 42 -9 51 11 91 25 51 125 154 184
189 l38 23 31 -21 c26 -19 44 -22 130 -22 85 0 115 5 200 32 131 43 230 99
316 180 84 80 142 170 209 328 102 241 125 291 172 360 75 112 82 119 112 111
29 -7 34 -27 11 -46 -47 -39 -157 -243 -249 -459 -31 -73 -72 -157 -90 -185
-84 -128 -245 -235 -461 -306 -135 -44 -171 -71 -176 -132 -4 -49 22 -76 110
-117 124 -57 209 -74 376 -75 170 -1 254 13 425 70 333 111 653 379 813 682
129 246 171 532 104 721 -32 90 -87 173 -134 202 -47 29 -136 23 -216 -15 -32
-16 -60 -26 -63 -24 -2 3 19 19 47 38 60 39 109 102 109 141 0 98 -243 199
-480 199 -104 0 -70 -12 -355 125 -148 72 -164 76 -325 95 -149 17 -158 17
-225 0 -39 -10 -95 -21 -125 -25 -52 -6 -57 -5 -101 28 -319 244 -756 335
-1003 210 -111 -56 -147 -102 -147 -185 0 -29 5 -66 11 -82 15 -40 6 -43 -21
-7 -37 50 -84 73 -125 62 -19 -5 -34 -6 -34 -1 0 15 132 141 232 221 103 82
223 154 322 194 34 13 165 58 291 99 200 64 250 77 385 94 191 25 350 27 512
7z m-1469 -90 c-131 -61 -282 -173 -443 -331 -70 -68 -111 -100 -154 -118
-241 -106 -558 -350 -694 -534 -226 -307 -253 -629 -79 -937 50 -88 89 -138
191 -243 224 -232 514 -401 921 -539 718 -242 1648 -268 2403 -68 234 63 487
159 662 253 175 94 429 280 481 353 11 16 26 29 33 29 16 0 71 58 63 66 -4 4
9 29 28 55 48 67 109 192 137 279 20 65 23 95 23 225 0 143 -2 154 -32 241
-106 305 -388 582 -811 796 -103 52 -154 86 -230 151 -122 105 -272 222 -374
290 -43 28 -72 53 -64 55 12 3 129 -22 276 -59 286 -71 634 -210 877 -350 214
-123 372 -236 628 -449 176 -147 241 -190 335 -225 67 -25 94 -28 265 -36 330
-14 498 -70 659 -220 95 -89 146 -170 186 -294 47 -150 57 -256 35 -407 -47
-330 -182 -645 -396 -923 -109 -143 -194 -218 -329 -295 -63 -35 -157 -93
-208 -127 -51 -35 -118 -76 -150 -92 -75 -38 -290 -116 -298 -108 -3 3 14 70
39 149 65 206 75 246 111 416 l32 153 98 40 c115 46 163 81 246 175 142 162
198 207 339 278 82 42 161 110 185 161 22 46 20 133 -4 189 -23 55 -59 106
-75 106 -6 0 -29 -18 -50 -41 l-40 -40 -6 57 c-5 44 -12 61 -30 75 -40 30
-114 42 -220 36 -86 -5 -106 -10 -171 -43 -40 -20 -75 -39 -78 -43 -3 -3 -18
-17 -33 -30 l-27 -25 0 160 c0 87 -4 177 -8 199 l-8 40 -8 -65 c-15 -136 -89
-370 -154 -490 -106 -196 -264 -389 -433 -527 -66 -53 -119 -99 -119 -101 0
-2 6 0 13 5 6 6 66 50 132 98 66 49 153 120 193 159 91 88 209 232 252 308 33
60 50 79 50 56 0 -7 -20 -83 -44 -168 -25 -85 -52 -193 -60 -240 -9 -46 -23
-94 -31 -107 -9 -13 -15 -46 -15 -82 0 -64 -17 -155 -79 -413 -32 -138 -58
-212 -141 -415 -56 -137 -114 -270 -127 -298 -125 -250 -423 -593 -693 -800
-77 -58 -161 -117 -188 -130 -63 -31 -144 -33 -234 -5 -34 11 -70 20 -79 20
-9 0 -61 -38 -115 -85 -113 -97 -216 -155 -277 -155 -24 0 -70 14 -121 37 -74
34 -89 37 -171 38 -82 0 -97 -3 -155 -32 -46 -22 -88 -55 -142 -112 -43 -44
-78 -84 -78 -90 0 -19 91 -73 132 -79 25 -3 35 -8 27 -12 -29 -16 -358 -50
-477 -50 -70 0 -76 14 -10 24 43 7 164 85 175 112 3 9 -13 32 -38 58 -68 66
-171 185 -201 230 -38 57 -42 87 -23 171 24 99 15 138 -40 191 -98 95 -250 69
-299 -49 -18 -44 -19 -54 -7 -134 11 -82 11 -87 -11 -132 -42 -84 -123 -114
-233 -86 -33 9 -125 47 -205 85 -80 37 -162 74 -183 80 -47 15 -64 43 -44 74
9 12 44 46 80 75 88 72 117 126 117 221 0 61 -6 87 -40 171 -59 146 -59 146
58 299 62 83 66 172 9 257 -43 65 -112 102 -189 103 -68 0 -103 -12 -142 -48
-63 -59 -83 -164 -51 -268 19 -64 19 -128 -1 -169 -20 -44 -117 -154 -155
-179 -74 -46 -221 6 -337 120 -61 59 -65 65 -59 99 3 20 27 65 52 101 75 104
99 166 100 254 0 90 -19 147 -84 245 -60 92 -167 200 -205 207 -42 8 -85 -7
-173 -60 -68 -41 -85 -47 -134 -47 -64 0 -92 18 -115 72 -19 44 -18 90 6 224
24 137 25 171 5 209 -9 17 -14 30 -12 30 2 0 69 -31 148 -69 336 -161 723
-280 1218 -376 184 -35 489 -80 497 -73 2 3 -67 15 -154 27 -309 45 -682 140
-957 243 -408 154 -761 374 -1028 641 -202 201 -317 376 -378 572 -38 125 -49
192 -49 314 0 92 4 115 31 188 16 45 27 88 23 94 -19 32 148 290 274 423 51
53 241 208 326 265 240 162 694 368 866 393 36 5 83 18 105 28 53 25 112 43
215 68 213 52 253 54 153 7z m522 -317 c246 -48 517 -203 705 -404 59 -64 190
-232 190 -245 0 -3 -33 -28 -72 -55 -90 -61 -258 -226 -323 -317 -33 -48 -53
-67 -64 -64 -37 11 -364 148 -413 173 -201 101 -355 245 -505 472 -81 122
-113 192 -113 248 0 104 135 190 340 217 44 6 152 -4 255 -25z m-668 -278 c21
-22 67 -89 101 -149 141 -248 281 -400 467 -509 39 -23 154 -75 257 -116 176
-71 248 -102 248 -110 0 -2 -18 -41 -40 -88 -66 -142 -91 -250 -96 -418 -4
-116 -1 -163 14 -233 10 -48 17 -89 15 -91 -7 -7 -142 17 -221 40 -384 111
-748 442 -902 818 -68 166 -84 250 -85 426 0 168 12 233 62 339 34 71 88 131
119 131 14 0 38 -16 61 -40z m3055 -180 c56 -39 68 -52 81 -92 8 -27 13 -48
10 -48 -2 0 -23 13 -46 29 -38 26 -187 181 -187 195 0 7 65 -31 142 -84z
m-3319 -35 c-21 -85 -21 -307 1 -408 91 -422 407 -815 811 -1009 47 -22 84
-42 83 -44 -2 -1 -35 -10 -73 -18 -39 -8 -132 -29 -208 -45 -110 -25 -161 -31
-254 -31 -194 0 -670 54 -728 83 -11 5 -42 26 -70 47 -27 20 -72 45 -98 55
-83 31 -97 48 -97 112 0 48 4 62 33 97 18 23 39 55 46 72 7 17 32 51 57 75 24
24 44 48 44 54 0 6 20 42 44 81 24 38 47 81 51 94 15 49 118 295 225 540 23
52 53 122 67 155 32 77 73 158 78 153 2 -2 -3 -30 -12 -63z m2672 34 c194 -23
365 -108 365 -181 0 -45 -69 -105 -205 -177 -174 -93 -220 -122 -312 -196
-150 -120 -230 -240 -338 -505 -82 -202 -131 -286 -220 -376 -67 -68 -95 -89
-175 -127 -175 -85 -356 -115 -430 -72 -19 12 -47 39 -63 61 -61 87 -88 365
-52 539 96 460 516 878 1013 1004 151 39 272 48 417 30z m-2032 -262 c102
-100 215 -178 348 -242 114 -53 109 -58 -9 -9 -211 87 -360 209 -491 403 -57
84 -51 87 11 5 29 -38 92 -108 141 -157z m2545 -84 c41 -31 71 -78 107 -168
24 -59 29 -88 33 -185 11 -309 -126 -613 -390 -866 -253 -241 -555 -375 -880
-391 -141 -7 -239 5 -347 42 -86 29 -129 51 -163 83 -60 55 -28 95 117 145
191 67 301 126 399 217 82 76 122 142 205 338 114 268 202 407 344 538 119
110 363 261 447 277 43 8 94 -4 128 -30z m-1833 -314 c5 -5 6 -9 2 -9 -11 0
-87 39 -87 45 0 6 73 -25 85 -36z m3755 -524 c0 -48 -31 -139 -89 -260 -97
-201 -238 -364 -404 -464 -21 -13 -40 -22 -42 -20 -2 3 5 42 16 88 11 46 24
116 29 155 10 71 84 344 102 379 19 37 83 99 122 119 57 29 89 36 184 37 l82
1 0 -35z m-6603 -249 c36 -50 95 -121 131 -158 l66 -68 -18 -47 c-63 -166 -86
-265 -86 -374 0 -86 28 -146 116 -249 31 -36 63 -78 71 -95 21 -39 19 -102 -6
-199 -37 -139 -25 -204 76 -421 82 -177 84 -184 32 -105 -75 114 -195 368
-243 517 -64 196 -75 251 -82 383 -4 99 -10 128 -40 205 -29 78 -38 125 -69
365 -19 151 -37 302 -40 335 l-6 60 17 -29 c9 -17 46 -71 81 -120z m6057
-1471 c25 -78 35 -140 46 -284 17 -229 -23 -452 -121 -675 -327 -738 -1248
-1264 -2384 -1361 -216 -19 -582 -19 -795 0 -476 41 -931 157 -1332 340 -79
36 -151 70 -162 76 -292 167 -477 291 -569 384 -88 88 -157 165 -158 178 -3
28 -8 53 -15 75 -4 14 -2 22 5 22 22 0 83 -30 113 -55 17 -15 58 -40 92 -57
34 -17 88 -49 121 -73 33 -23 101 -63 150 -88 50 -26 106 -55 125 -66 19 -11
87 -43 150 -72 758 -338 1609 -451 2440 -322 695 108 1302 401 1668 807 258
286 398 647 377 976 -3 63 -7 128 -8 145 -2 29 0 30 113 71 63 23 118 38 121
35 4 -3 14 -28 23 -56z m-5049 -910 c55 -48 102 -93 104 -99 3 -8 1 -8 -10 0
-8 6 -57 43 -109 81 -52 39 -111 87 -130 108 l-35 37 40 -20 c22 -11 85 -59
140 -107z m1558 -646 c116 -23 132 -27 125 -35 -7 -7 -312 34 -341 46 -44 18
113 10 216 -11z"/>
<path d="M3656 8754 c-9 -8 -16 -20 -16 -25 0 -12 32 4 50 25 10 13 10 16 -3
16 -9 0 -23 -7 -31 -16z"/>
<path d="M5453 6083 c9 -2 23 -2 30 0 6 3 -1 5 -18 5 -16 0 -22 -2 -12 -5z"/>
<path d="M5533 6073 c15 -2 37 -2 50 0 12 2 0 4 -28 4 -27 0 -38 -2 -22 -4z"/>
<path d="M5728 6063 c17 -2 47 -2 65 0 17 2 3 4 -33 4 -36 0 -50 -2 -32 -4z"/>
<path d="M5609 5811 c-37 -37 -38 -79 -3 -120 59 -71 174 -36 174 54 0 37 -16
62 -50 80 -46 24 -87 19 -121 -14z"/>
<path d="M8023 5184 c-30 -15 -63 -65 -63 -96 0 -7 11 -30 25 -51 21 -30 32
-37 58 -37 38 0 81 38 91 82 9 39 -17 96 -49 108 -31 12 -24 13 -62 -6z"/>
<path d="M6395 5019 c-46 -26 -59 -75 -29 -117 20 -29 85 -31 114 -2 25 25 26
81 3 103 -25 22 -64 29 -88 16z"/>
<path d="M7243 4850 c-82 -49 -70 -145 22 -180 37 -14 68 1 95 46 35 55 26
115 -21 139 -37 20 -58 19 -96 -5z"/>
</g>
</svg>
